<?xml version="1.0" encoding="UTF-8" standalone="no"?>
<!-- Created with Inkscape (http://www.inkscape.org/) -->

<svg
   width="210mm"
   height="80mm"
   viewBox="0 0 210 80"
   version="1.1"
   id="svg265"
   xmlns="http://www.w3.org/2000/svg"
   xmlns:svg="http://www.w3.org/2000/svg">
  <defs
     id="defs262" />
  <g
     id="layer1">
    <g
       aria-label="REACFLIX"
       transform="matrix(0.24128555,0,0,0.43571218,-17.16496,-94.724901)"
       id="text4655"
       style="font-weight:bold;font-size:186.667px;font-family:'Leelawadee UI';-inkscape-font-specification:'Leelawadee UI, Bold';white-space:pre;shape-inside:url(#rect4657);display:inline;fill:#ff0000;stroke:#ff0000;stroke-width:1.1697;stop-color:#000000"
       class="UnoptimicedTransforms">
      <path
         d="m 218.80164,380.04511 c -10.95698,1.21684 -21.90511,2.50566 -32.84359,3.86701 -7.95638,-10.30296 -15.99758,-20.56954 -24.12402,-30.79873 -1.82704,-2.33153 -3.56308,-4.39834 -5.20584,-6.20046 -1.64285,-1.80221 -3.27836,-3.29779 -4.90527,-4.48681 -1.57513,-1.25737 -3.19337,-2.13988 -4.85324,-2.6473 -1.60809,-0.57585 -3.31373,-0.73835 -5.11471,-0.48685 -2.6114,0.36467 -5.22225,0.73343 -7.83257,1.10629 l 7.07061,49.52825 c -9.49883,1.35949 -18.98948,2.77457 -28.47142,4.24562 L 92.540885,265.00493 c 15.831855,-2.44217 31.681355,-4.73768 47.546335,-6.88806 32.45798,-4.39942 49.9555,5.71579 52.6979,29.1648 0.52912,4.52425 0.31521,8.79958 -0.6319,12.82478 -0.95428,3.96516 -2.52388,7.63721 -4.70341,11.01872 -2.17967,3.38171 -4.94644,6.40944 -8.29909,9.08904 -3.29223,2.67216 -7.057,4.9207 -11.29772,6.75212 l 0.0465,0.36148 c 2.00748,0.3543 4.0038,1.11032 5.98662,2.26797 1.97522,1.09739 3.91795,2.44567 5.8271,4.04468 1.90917,1.59902 3.74331,3.36196 5.5023,5.28849 1.81157,1.85882 3.46591,3.70787 4.96386,5.54595 9.65886,11.80434 19.19938,23.66165 28.62229,35.57021 z m -93.16048,-97.65533 5.13875,35.99594 c 4.23755,-0.60479 8.47646,-1.19889 12.71668,-1.78233 6.29892,-0.8667 11.11428,-3.34546 14.46649,-7.46279 3.40372,-4.18395 4.77001,-8.98318 4.06939,-14.4052 -1.46162,-11.31137 -9.09387,-16.12673 -22.9402,-14.22695 -4.48505,0.61537 -8.96877,1.24246 -13.45111,1.88133 z"
         id="path4661" />
      <path
         d="m 307.04554,371.80307 c -25.49509,1.93646 -50.95449,4.25127 -76.36797,6.95165 L 216.88994,248.84608 c 25.69726,-2.72428 51.42587,-5.07632 77.17675,-7.06255 l 1.84212,23.88717 c -15.55517,1.19973 -31.10131,2.53425 -46.63637,4.00502 l 2.74011,28.93042 c 14.2985,-1.35409 28.6074,-2.59133 42.92504,-3.71287 l 1.86382,23.79411 c -14.1894,1.11144 -28.36941,2.33765 -42.53837,3.67981 l 2.81742,29.74663 c 16.03761,-1.51963 32.09077,-2.88878 48.157,-4.1092 z"
         id="path4663" />
      <path
         d="m 442.50706,365.04109 c -10.4738,0.25444 -20.94465,0.57012 -31.41183,0.94754 -3.38357,-9.57214 -6.79988,-19.13771 -10.24902,-28.69654 -15.32799,0.6062 -30.6488,1.34363 -45.96032,2.2138 -2.48219,9.8436 -4.93084,19.6904 -7.34583,29.54025 -10.39012,0.62599 -20.77522,1.31401 -31.15462,2.06455 12.33815,-44.5497 25.46728,-89.0177 39.37182,-133.3869 11.93953,-0.65135 23.88228,-1.22534 35.82734,-1.72262 17.71192,42.84885 34.68256,85.86862 50.92246,129.03992 z m -49.28322,-50.05094 c -5.28261,-14.42822 -10.6403,-28.84078 -16.07339,-43.23709 -1.20161,-3.226 -2.12983,-7.1042 -2.78157,-11.63277 -0.24736,0.0119 -0.49471,0.0239 -0.74206,0.0359 -0.12425,3.83687 -0.71246,7.66566 -1.75886,11.48735 -4.07743,14.97742 -8.0766,29.96332 -11.99707,44.95717 11.11363,-0.60582 22.23154,-1.14247 33.35295,-1.61052 z"
         id="path4665" />
      <path
         d="m 547.62138,359.87542 c -9.43934,4.48651 -21.64511,6.66197 -36.70393,6.64785 -19.63121,-0.0184 -35.09641,-5.71953 -46.60832,-17.32477 -11.49456,-11.58773 -17.59051,-27.15725 -18.03235,-46.76803 -0.47068,-20.89067 5.63031,-38.00346 18.57803,-51.20744 13.00602,-13.20119 30.22884,-19.89101 51.40959,-19.84038 13.11354,0.0313 24.16279,1.75633 33.09077,5.09984 l -0.39824,28.34209 c -8.81432,-5.3486 -18.95262,-8.06244 -30.34355,-8.10007 -12.50747,-0.0413 -22.59911,3.8641 -30.1863,11.63366 -7.59421,7.77674 -11.26119,18.26827 -11.11219,31.45162 0.14277,12.63294 3.8179,22.67713 10.92439,30.15268 7.11255,7.42165 16.57335,11.11096 28.46377,11.14604 11.35231,0.0335 21.75659,-2.6611 31.29608,-8.11707 -0.12592,8.96133 -0.25183,17.92266 -0.37775,26.88398 z"
         id="path4667" />
      <path
         d="m 649.15231,260.93423 c -15.63607,-0.7571 -31.2787,-1.38942 -46.92579,-1.89548 l -1.04042,32.06921 c 14.2208,0.46104 28.43868,1.02748 42.65203,1.69819 l -1.12629,23.85801 c -14.0967,-0.66591 -28.19728,-1.22846 -42.30014,-1.6865 l -1.64634,50.74589 c -9.62202,-0.31376 -19.24447,-0.57802 -28.86683,-0.7924 l 2.88828,-130.67253 c 25.85589,0.56713 51.70128,1.47857 77.52705,2.72784 z"
         id="path4669" />
      <path
         d="m 741.30018,373.95341 c -25.39386,-2.098 -50.80948,-3.86326 -76.23685,-5.28868 l 7.3018,-130.52936 c 10.05775,0.56149 20.11212,1.17398 30.16257,1.83709 l -7.04387,106.6202 c 15.93513,1.05366 31.86342,2.23884 47.78246,3.55386 z"
         id="path4671" />
      <path
         d="m 787.30426,378.11923 c -9.59314,-0.94462 -19.19027,-1.84224 -28.79083,-2.6925 l 11.53299,-130.23647 c 10.03018,0.88813 20.05523,1.82602 30.0746,2.8133 z"
         id="path4673" />
      <path
         d="m 920.37755,394.24298 c -11.31767,-1.62679 -22.64447,-3.19 -33.97948,-4.68901 -5.44656,-15.03413 -10.99977,-30.0563 -16.66036,-45.06496 -0.64525,-1.67312 -1.15599,-4.67638 -1.53603,-9.01057 -0.12053,-0.0149 -0.24106,-0.0299 -0.36159,-0.0448 -0.66925,1.93993 -2.03572,4.82887 -4.09606,8.68014 -9.16883,13.04879 -18.23753,26.13869 -27.2049,39.26851 -11.41644,-1.31637 -22.83985,-2.56692 -34.2693,-3.75099 15.81365,-20.26902 31.91906,-40.41244 48.3096,-60.42415 -10.11835,-23.1297 -20.51809,-46.21354 -31.20229,-69.24467 12.18164,1.27805 24.35438,2.62884 36.51724,4.05169 4.82774,13.72147 9.57289,27.45274 14.23589,41.19284 1.08701,3.25713 1.94599,7.06834 2.57676,11.4342 0.12168,0.0151 0.24336,0.0303 0.36503,0.0455 1.04396,-2.43855 2.88666,-6.04422 5.52954,-10.79193 8.57684,-11.96717 17.23775,-23.8989 25.98181,-35.79424 11.11577,1.47858 22.22215,3.01684 33.3184,4.61425 -16.32594,19.47413 -32.39529,39.07534 -48.2023,58.79821 10.52367,23.53159 20.74854,47.11086 30.67804,70.73007 z"
         id="path4675" />
    </g>
  </g>
</svg>
